<svg id="Capa_1" enable-background="new 0 0 512 512" height="512" viewBox="0 0 512 512" width="512" xmlns="http://www.w3.org/2000/svg"><circle cx="256" cy="256" fill="#ff6c52" r="256"/><path d="m512 256c0-21.591-2.673-42.558-7.706-62.587l-134.772-134.772-263.332 154.281.016 217.125 68.913 68.913c25.423 8.459 52.617 13.04 80.881 13.04 141.385 0 256-114.615 256-256z" fill="#f92814"/><path d="m106.206 222.072h299.21v207.975h-299.21z" fill="#414952"/><path d="m255.839 222.072h149.576v207.975h-149.576z" fill="#23272b"/><path d="m106.206 212.916h299.21v60.169h-299.21z" fill="#fff"/><path d="m255.839 212.915h149.576v60.169h-149.576z" fill="#e9edf5"/><path d="m260.984 273.084h-39.777l29.43-60.168h39.777z" fill="#707789"/><path d="m290.414 212.915h-34.575v60.169h5.145z" fill="#555a66"/><path d="m349.602 273.084h-39.777l29.43-60.168h39.778z" fill="#555a66"/><path d="m172.365 273.084h-39.777l29.431-60.168h39.777z" fill="#707789"/><path d="m88.251 105.697h299.21v60.169h-299.21z" fill="#fff" transform="matrix(.946 -.326 .326 .946 -31.243 84.813)"/><path d="m252.539 162.544 136.567-47.011-19.584-56.892-113.683 39.133" fill="#e9edf5"/><path d="m252.539 162.544-37.611 12.947 8.244-66.472 37.611-12.947z" fill="#707789"/><path d="m336.332 133.7-37.611 12.947 8.244-66.472 37.611-12.947z" fill="#555a66"/><path d="m168.747 191.388-37.611 12.947 8.243-66.472 37.611-12.947z" fill="#707789"/><path d="m146.918 305.458h217.785v28.449h-217.785z" fill="#7e8596"/><path d="m255.839 305.458h108.864v28.449h-108.864z" fill="#636978"/><path d="m146.918 358.433h217.785v28.449h-217.785z" fill="#7e8596"/><path d="m255.839 358.433h108.864v28.449h-108.864z" fill="#636978"/></svg>