<?xml version="1.0" encoding="iso-8859-1"?>
<!-- Generator: Adobe Illustrator 19.0.0, SVG Export Plug-In . SVG Version: 6.00 Build 0)  -->
<svg version="1.1" id="Layer_1" xmlns="http://www.w3.org/2000/svg" xmlns:xlink="http://www.w3.org/1999/xlink" x="0px" y="0px"
	 viewBox="0 0 512 512" style="enable-background:new 0 0 512 512;" xml:space="preserve">
<g>
	<path style="fill:#EFEFEF;" d="M256,0C114.616,0,0,114.616,0,256s114.616,256,256,256s256-114.616,256-256S397.384,0,256,0z
		 M256,489.296C127.36,489.296,22.704,384.64,22.704,256C22.704,127.352,127.36,22.696,256,22.696
		c128.648,0,233.304,104.656,233.304,233.304C489.304,384.64,384.648,489.296,256,489.296z"/>
	<path style="fill:#EFEFEF;" d="M256,30.696C131.768,30.696,30.704,131.768,30.704,256c0,124.224,101.072,225.296,225.296,225.296
		c124.232,0,225.304-101.072,225.304-225.296C481.304,131.768,380.232,30.696,256,30.696z M156.64,387.712V124.288l246.72,131.72
		L156.64,387.712z"/>
</g>
<path style="fill:#FFFFFF;" d="M256,22.696C127.36,22.696,22.704,127.352,22.704,256c0,128.64,104.656,233.296,233.296,233.296
	c128.648,0,233.304-104.656,233.304-233.296C489.304,127.352,384.648,22.696,256,22.696z M256,481.296
	C131.768,481.296,30.704,380.232,30.704,256S131.768,30.696,256,30.696S481.304,131.768,481.304,256
	C481.304,380.232,380.232,481.296,256,481.296z"/>
<polygon style="fill:#DB2B42;" points="156.64,387.712 403.36,256.008 156.64,124.288 "/>
<g>
</g>
<g>
</g>
<g>
</g>
<g>
</g>
<g>
</g>
<g>
</g>
<g>
</g>
<g>
</g>
<g>
</g>
<g>
</g>
<g>
</g>
<g>
</g>
<g>
</g>
<g>
</g>
<g>
</g>
</svg>
